<svg xmlns="http://www.w3.org/2000/svg" height="48" viewBox="0 -960 960 960" width="48"><path d="M733.587-404.848v-129.326H604.261v-72.044h129.326v-129.086h72.043v129.086h129.087v72.044H805.63v129.326h-72.043Zm-373.119-83.587q-72.745 0-118.183-45.557-45.437-45.557-45.437-118.144 0-72.588 45.399-118.074 45.4-45.486 118.145-45.486 72.744 0 118.35 45.459 45.606 45.46 45.606 118.22 0 72.468-45.568 118.025-45.567 45.557-118.312 45.557ZM23.804-130v-110.674q0-40.016 19.336-71.009 19.335-30.994 55.056-46.621 76.761-35 137.919-48.881 61.159-13.88 124.152-13.88 63.45 0 124.211 14 60.761 14 137.522 48.761 35.721 16.353 55.556 46.841 19.835 30.489 19.835 70.735V-130H23.804Z"/></svg>