<?xml version="1.0" standalone="no"?>
<!DOCTYPE svg PUBLIC "-//W3C//DTD SVG 20010904//EN"
 "http://www.w3.org/TR/2001/REC-SVG-20010904/DTD/svg10.dtd">
<svg version="1.0" xmlns="http://www.w3.org/2000/svg"
 width="465.000000pt" height="465.000000pt" viewBox="0 0 465.000000 465.000000"
 preserveAspectRatio="xMidYMid meet">

<g transform="translate(0.000000,465.000000) scale(0.100000,-0.100000)"
fill="#000000" stroke="none">
<path d="M2246 4150 l-1789 -5 -93 -165 c-51 -91 -94 -175 -94 -187 l0 -23
1558 -1 c856 -1 1568 -4 1581 -8 13 -3 34 -19 45 -34 l21 -28 -26 -47 c-14
-26 -101 -175 -194 -332 -92 -157 -245 -415 -338 -575 -94 -159 -242 -411
-329 -560 -156 -264 -159 -271 -144 -295 9 -14 53 -89 98 -168 53 -93 87 -142
96 -140 8 2 40 48 71 103 316 552 568 997 858 1510 190 336 388 684 439 773
52 90 94 168 94 173 0 5 -6 9 -12 9 -7 0 -22 1 -33 3 -11 1 -825 0 -1809 -3z"/>
<path d="M4185 3997 c-73 -130 -484 -854 -690 -1217 -111 -195 -318 -560 -460
-810 -389 -686 -344 -614 -391 -618 -29 -2 -45 2 -56 15 -9 10 -76 124 -150
253 -74 129 -202 350 -283 490 -82 140 -181 311 -220 380 -40 69 -141 244
-225 390 -84 146 -157 271 -162 278 -14 17 -458 18 -458 0 0 -6 65 -120 144
-252 409 -687 966 -1624 1220 -2053 89 -150 166 -272 172 -272 7 -1 34 38 61
87 27 48 135 233 240 412 310 530 569 973 683 1170 59 102 272 468 474 814
l368 629 -26 46 c-14 25 -61 110 -104 188 -42 79 -81 143 -87 143 -5 0 -28
-33 -50 -73z"/>
<path d="M270 3601 c0 -10 155 -283 343 -607 189 -324 447 -767 574 -984 265
-456 573 -983 749 -1285 68 -115 128 -216 134 -223 8 -9 64 -12 215 -12 173 0
205 2 205 15 0 8 -161 283 -357 612 -196 329 -377 634 -403 678 -25 44 -96
163 -157 265 -709 1185 -705 1177 -669 1226 14 19 38 19 1098 22 l1083 2 83
140 c45 76 82 146 82 155 0 13 -155 15 -1490 15 -1444 0 -1490 -1 -1490 -19z"/>
</g>
</svg>
